<svg xmlns="http://www.w3.org/2000/svg" xmlns:xlink="http://www.w3.org/1999/xlink" width="120" zoomAndPan="magnify" viewBox="0 0 90 67.499998" height="90" preserveAspectRatio="xMidYMid meet" version="1.0"><defs><clipPath id="029ef4531e"><path d="M 15.507812 7 L 74.324219 7 L 74.324219 58 L 15.507812 58 Z M 15.507812 7 " clip-rule="nonzero"/></clipPath><clipPath id="2d3d0317d6"><path d="M 15.507812 5.074219 L 74.324219 5.074219 L 74.324219 60.167969 L 15.507812 60.167969 Z M 15.507812 5.074219 " clip-rule="nonzero"/></clipPath></defs><path fill="#00d8ff" d="M 50.167969 32.574219 C 50.167969 32.917969 50.136719 33.261719 50.066406 33.597656 C 50 33.9375 49.902344 34.265625 49.769531 34.585938 C 49.636719 34.902344 49.476562 35.207031 49.285156 35.492188 C 49.09375 35.78125 48.875 36.046875 48.632812 36.289062 C 48.386719 36.53125 48.121094 36.75 47.835938 36.941406 C 47.546875 37.132812 47.246094 37.296875 46.925781 37.429688 C 46.609375 37.558594 46.28125 37.660156 45.941406 37.726562 C 45.605469 37.792969 45.261719 37.828125 44.917969 37.828125 C 44.574219 37.828125 44.230469 37.792969 43.894531 37.726562 C 43.554688 37.660156 43.226562 37.558594 42.90625 37.429688 C 42.589844 37.296875 42.285156 37.132812 42 36.941406 C 41.710938 36.75 41.449219 36.53125 41.203125 36.289062 C 40.960938 36.046875 40.742188 35.78125 40.550781 35.492188 C 40.359375 35.207031 40.195312 34.902344 40.066406 34.585938 C 39.933594 34.265625 39.832031 33.9375 39.765625 33.597656 C 39.699219 33.261719 39.664062 32.917969 39.664062 32.574219 C 39.664062 32.230469 39.699219 31.886719 39.765625 31.546875 C 39.832031 31.210938 39.933594 30.882812 40.066406 30.5625 C 40.195312 30.246094 40.359375 29.941406 40.550781 29.65625 C 40.742188 29.367188 40.960938 29.101562 41.203125 28.859375 C 41.449219 28.613281 41.710938 28.398438 42 28.203125 C 42.285156 28.011719 42.589844 27.851562 42.90625 27.71875 C 43.226562 27.585938 43.554688 27.488281 43.894531 27.421875 C 44.230469 27.351562 44.574219 27.320312 44.917969 27.320312 C 45.261719 27.320312 45.605469 27.351562 45.941406 27.421875 C 46.28125 27.488281 46.609375 27.585938 46.925781 27.71875 C 47.246094 27.851562 47.546875 28.011719 47.835938 28.203125 C 48.121094 28.398438 48.386719 28.613281 48.632812 28.859375 C 48.875 29.101562 49.09375 29.367188 49.285156 29.65625 C 49.476562 29.941406 49.636719 30.246094 49.769531 30.5625 C 49.902344 30.882812 50 31.210938 50.066406 31.546875 C 50.136719 31.886719 50.167969 32.230469 50.167969 32.574219 Z M 50.167969 32.574219 " fill-opacity="1" fill-rule="nonzero"/><g clip-path="url(#029ef4531e)"><path stroke-linecap="butt" transform="matrix(0.10469, 0, 0, 0.104736, 16.700222, 7.685192)" fill="none" stroke-linejoin="miter" d="M 269.537443 135.630664 C 336.886888 135.630664 399.460305 145.290354 446.623572 161.551454 C 503.488144 181.094611 538.450154 210.782308 538.450154 237.6355 C 538.450154 265.607576 501.398632 297.122781 440.355036 317.374564 C 394.199212 332.665966 333.454118 340.647331 269.537443 340.647331 C 203.97901 340.647331 141.890658 333.150815 95.212456 317.188084 C 36.183746 297.010893 0.624732 265.085431 0.624732 237.6355 C 0.624732 211.006084 33.982296 181.542164 90.025989 161.999007 C 137.37582 145.514131 201.516371 135.630664 269.537443 135.630664 Z M 269.537443 135.630664 " stroke="#00d8ff" stroke-width="24" stroke-opacity="1" stroke-miterlimit="4"/></g><g clip-path="url(#2d3d0317d6)"><path stroke-linecap="butt" transform="matrix(0.10469, 0, 0, 0.104736, 16.700222, 7.685192)" fill="none" stroke-linejoin="miter" d="M 180.73319 186.912803 C 214.389256 128.581701 254.015356 79.201663 291.663881 46.455686 C 336.998826 6.959115 380.169633 -8.48147 403.415452 4.945126 C 427.668714 18.931164 436.474514 66.744765 423.489691 129.73788 C 413.71376 177.365001 390.281378 233.943186 358.304384 289.327896 C 325.581136 346.129858 288.081861 396.14393 250.955713 428.591538 C 203.97901 469.691841 158.532127 484.535689 134.76393 470.810724 C 111.667362 457.533312 102.861562 413.896874 113.943437 355.603068 C 123.271615 306.334918 146.74131 245.840643 180.73319 186.912803 Z M 180.73319 186.912803 " stroke="#00d8ff" stroke-width="24" stroke-opacity="1" stroke-miterlimit="4"/><path stroke-linecap="butt" transform="matrix(0.10469, 0, 0, 0.104736, 16.700222, 7.685192)" fill="none" stroke-linejoin="miter" d="M 180.807816 289.477081 C 147.077125 231.183275 124.092494 172.218139 114.503128 123.248358 C 102.9735 64.245927 111.144984 19.117644 134.390803 5.653752 C 158.606752 -8.369582 204.426762 7.891518 252.522847 50.595554 C 288.865428 82.893977 326.215452 131.453501 358.229758 186.763619 C 391.064944 243.490988 415.691334 300.96428 425.280701 349.337323 C 437.370019 410.577521 427.594089 457.346831 403.825892 471.071797 C 380.766636 484.423801 338.56596 470.288579 293.56683 431.575226 C 255.582489 398.866545 214.911634 348.330328 180.807816 289.477081 Z M 180.807816 289.477081 " stroke="#00d8ff" stroke-width="24" stroke-opacity="1" stroke-miterlimit="4"/></g></svg>