<svg xmlns="http://www.w3.org/2000/svg" xmlns:xlink="http://www.w3.org/1999/xlink" width="120" zoomAndPan="magnify" viewBox="0 0 90 67.499998" height="90" preserveAspectRatio="xMidYMid meet" version="1.0"><defs><clipPath id="1c112b3de2"><path d="M 24 11.339844 L 66.1875 11.339844 L 66.1875 56 L 24 56 Z M 24 11.339844 " clip-rule="nonzero"/></clipPath></defs><path fill="#000000" d="M 63.269531 38.875 C 63.269531 38.878906 63.269531 38.878906 63.265625 38.878906 C 63.261719 38.878906 63.261719 38.878906 63.261719 38.875 C 63.261719 38.871094 63.261719 38.871094 63.265625 38.871094 C 63.269531 38.871094 63.269531 38.871094 63.269531 38.875 Z M 63.269531 38.875 " fill-opacity="1" fill-rule="nonzero"/><path fill="#32648d" d="M 57.847656 38.523438 L 57.851562 38.527344 L 57.851562 38.53125 L 57.847656 38.53125 C 57.582031 38.628906 57.363281 38.671875 57.175781 38.753906 C 56.988281 38.828125 56.835938 38.96875 56.746094 39.144531 L 56.746094 39.148438 C 56.632812 39.359375 56.53125 39.738281 56.5625 40.378906 C 56.636719 40.433594 56.730469 40.476562 56.820312 40.503906 L 56.828125 40.507812 C 57.136719 40.601562 57.65625 40.664062 58.234375 40.65625 C 59.386719 40.644531 60.804688 40.367188 61.558594 40.011719 C 62.207031 39.699219 62.765625 39.320312 63.261719 38.875 C 60.742188 39.40625 59.320312 39.265625 58.449219 38.898438 C 58.222656 38.796875 58.023438 38.671875 57.847656 38.523438 Z M 57.847656 38.523438 " fill-opacity="1" fill-rule="nonzero"/><path fill="#32648d" d="M 55.265625 19.003906 L 55.277344 19.019531 L 55.292969 19.035156 Z M 55.265625 19.003906 " fill-opacity="1" fill-rule="nonzero"/><path fill="#32648d" d="M 45.640625 46.964844 C 45.640625 46.917969 45.640625 46.871094 45.640625 46.824219 C 45.640625 46.804688 45.636719 46.792969 45.636719 46.773438 Z M 45.640625 46.964844 " fill-opacity="1" fill-rule="nonzero"/><path fill="#32648d" d="M 43.710938 38.816406 C 43.605469 38.765625 43.480469 38.726562 43.347656 38.707031 L 43.34375 38.707031 L 43.34375 38.703125 L 43.304688 38.703125 C 43.210938 38.710938 43.070312 38.746094 42.800781 39.050781 C 42.171875 39.769531 41.953125 40.222656 41.433594 40.644531 C 40.914062 41.066406 40.238281 41.292969 38.894531 41.574219 C 38.46875 41.664062 38.222656 41.761719 38.0625 41.839844 C 38.113281 41.882812 38.109375 41.894531 38.1875 41.9375 C 38.386719 42.046875 38.636719 42.144531 38.84375 42.199219 C 39.421875 42.347656 40.371094 42.519531 41.363281 42.347656 C 42.355469 42.171875 43.386719 41.6875 44.265625 40.425781 C 44.417969 40.210938 44.433594 39.886719 44.308594 39.542969 C 44.183594 39.199219 43.90625 38.902344 43.710938 38.816406 Z M 43.710938 38.816406 " fill-opacity="1" fill-rule="nonzero"/><path fill="#32648d" d="M 51.097656 14.113281 L 50.992188 14.132812 C 51.027344 14.125 51.066406 14.121094 51.101562 14.113281 C 51.097656 14.113281 51.097656 14.113281 51.097656 14.113281 Z M 51.097656 14.113281 " fill-opacity="1" fill-rule="nonzero"/><path fill="#32648d" d="M 56.1875 24.078125 C 54.957031 24.09375 54.269531 24.417969 53.910156 24.839844 C 53.398438 25.4375 53.347656 26.492188 53.667969 27.785156 C 53.984375 29.085938 54.636719 30.535156 55.25 31.742188 C 55.558594 32.34375 55.855469 32.886719 56.097656 33.328125 C 56.335938 33.769531 56.515625 34.085938 56.621094 34.351562 C 56.722656 34.601562 56.832031 34.816406 56.945312 35.019531 C 57.421875 33.996094 57.503906 32.992188 57.457031 31.941406 C 57.394531 30.644531 57.097656 29.316406 57.140625 27.972656 C 57.191406 26.402344 57.496094 25.378906 57.519531 24.164062 C 57.121094 24.109375 56.65625 24.078125 56.1875 24.078125 Z M 56.414062 25.011719 L 56.410156 25.027344 C 56.410156 25.03125 56.410156 25.035156 56.410156 25.042969 C 56.410156 25.128906 56.386719 25.210938 56.34375 25.277344 L 56.347656 25.273438 C 56.289062 25.378906 56.222656 25.472656 56.148438 25.550781 C 55.96875 25.753906 55.726562 25.894531 55.457031 25.941406 L 55.449219 25.941406 C 55.410156 25.949219 55.367188 25.949219 55.324219 25.949219 C 55.09375 25.949219 54.878906 25.875 54.707031 25.75 L 54.710938 25.753906 C 54.621094 25.691406 54.542969 25.617188 54.476562 25.535156 C 54.417969 25.472656 54.378906 25.390625 54.363281 25.304688 L 54.363281 25.300781 C 54.363281 25.292969 54.359375 25.28125 54.359375 25.273438 C 54.359375 25.195312 54.390625 25.121094 54.4375 25.0625 C 54.496094 24.996094 54.566406 24.941406 54.648438 24.898438 L 54.652344 24.898438 C 54.824219 24.796875 55.058594 24.726562 55.324219 24.683594 C 55.421875 24.667969 55.523438 24.660156 55.613281 24.660156 L 55.613281 24.664062 L 55.703125 24.664062 C 55.820312 24.667969 55.929688 24.683594 56.027344 24.707031 C 56.125 24.726562 56.210938 24.761719 56.277344 24.808594 C 56.34375 24.855469 56.394531 24.925781 56.414062 25.011719 Z M 56.414062 25.011719 " fill-opacity="1" fill-rule="nonzero"/><path fill="#32648d" d="M 36.058594 32.210938 C 36.058594 31.878906 36.085938 31.554688 36.132812 31.234375 L 36.128906 31.269531 C 36.316406 29.90625 36.339844 28.628906 36.316406 27.621094 C 36.296875 26.640625 36.226562 25.988281 36.226562 25.578125 C 36.226562 25.574219 36.226562 25.566406 36.226562 25.5625 C 36.226562 25.558594 36.226562 25.550781 36.226562 25.542969 L 36.226562 25.523438 C 36.226562 25.519531 36.226562 25.515625 36.226562 25.511719 C 36.226562 23.328125 36.605469 21.234375 37.292969 19.289062 C 37.800781 17.914062 38.554688 16.523438 39.683594 15.390625 C 38.574219 15.019531 36.605469 14.449219 34.472656 14.34375 C 34.269531 14.332031 34.027344 14.324219 33.789062 14.324219 L 33.785156 14.324219 L 33.785156 14.328125 C 33.558594 14.328125 33.328125 14.335938 33.101562 14.347656 C 31.277344 14.453125 29.550781 14.996094 28.316406 16.332031 C 27.082031 17.667969 26.265625 19.859375 26.445312 23.484375 C 26.480469 24.171875 26.769531 26.097656 27.273438 28.382812 C 27.777344 30.667969 28.484375 33.355469 29.335938 35.730469 C 30.191406 38.105469 31.226562 40.175781 32.207031 41.152344 C 32.703125 41.640625 33.132812 41.839844 33.523438 41.824219 C 33.914062 41.804688 34.386719 41.574219 34.964844 40.867188 C 36.09375 39.476562 37.164062 38.242188 38.269531 37.046875 L 38.234375 37.085938 C 36.898438 35.894531 36.058594 34.15625 36.058594 32.210938 Z M 36.058594 32.210938 " fill-opacity="1" fill-rule="nonzero"/><path fill="#32648d" d="M 45.785156 14.234375 L 45.785156 14.230469 C 43.648438 14.238281 42.121094 14.894531 40.957031 15.882812 C 39.757812 16.902344 38.957031 18.300781 38.425781 19.730469 C 37.800781 21.429688 37.585938 23.074219 37.5 24.1875 L 37.523438 24.171875 C 38.167969 23.804688 39.015625 23.433594 39.921875 23.21875 C 40.832031 23.007812 41.808594 22.941406 42.691406 23.292969 C 43.578125 23.644531 44.308594 24.46875 44.574219 25.71875 C 45.84375 31.730469 44.179688 33.96875 43.5625 35.652344 C 43.367188 36.140625 43.164062 36.761719 42.996094 37.398438 L 42.964844 37.523438 C 43.042969 37.503906 43.121094 37.484375 43.199219 37.476562 C 43.632812 37.4375 43.972656 37.585938 44.171875 37.675781 C 44.792969 37.9375 45.214844 38.488281 45.445312 39.113281 C 45.503906 39.277344 45.546875 39.457031 45.574219 39.640625 C 45.597656 39.703125 45.609375 39.777344 45.609375 39.851562 C 45.609375 39.859375 45.609375 39.867188 45.609375 39.875 C 45.578125 40.796875 45.5625 41.878906 45.5625 42.96875 C 45.5625 44.257812 45.585938 45.542969 45.632812 46.824219 C 45.675781 47.792969 45.738281 48.652344 45.8125 49.332031 C 45.890625 50.023438 46 50.542969 46.070312 50.722656 C 46.300781 51.3125 46.640625 52.085938 47.25 52.613281 C 47.859375 53.136719 48.738281 53.488281 50.335938 53.136719 C 51.726562 52.832031 52.582031 52.410156 53.152344 51.800781 C 53.726562 51.195312 54.066406 50.347656 54.285156 49.054688 C 54.609375 47.117188 55.265625 41.496094 55.347656 40.4375 C 55.3125 39.640625 55.425781 39.027344 55.675781 38.5625 C 55.933594 38.082031 56.332031 37.789062 56.675781 37.628906 C 56.847656 37.550781 57.007812 37.496094 57.136719 37.457031 C 56.976562 37.222656 56.832031 37.027344 56.683594 36.835938 L 56.699219 36.859375 C 56.226562 36.273438 55.820312 35.605469 55.515625 34.882812 L 55.496094 34.828125 C 55.3125 34.441406 55.15625 34.152344 54.992188 33.867188 L 55.03125 33.9375 C 54.792969 33.496094 54.488281 32.941406 54.171875 32.320312 C 53.535156 31.074219 52.84375 29.5625 52.480469 28.089844 C 52.125 26.621094 52.074219 25.101562 52.992188 24.027344 C 53.800781 23.078125 55.230469 22.679688 57.371094 22.902344 C 57.308594 22.710938 57.273438 22.546875 57.164062 22.289062 C 56.644531 21.054688 56.015625 19.988281 55.269531 19.019531 C 53.457031 16.652344 50.519531 14.3125 45.988281 14.234375 Z M 45.785156 14.234375 " fill-opacity="1" fill-rule="nonzero"/><path fill="#32648d" d="M 37.472656 25.683594 L 37.476562 25.679688 L 37.484375 25.675781 Z M 37.472656 25.683594 " fill-opacity="1" fill-rule="nonzero"/><path fill="#32648d" d="M 40.164062 24.433594 L 40.195312 24.425781 Z M 40.164062 24.433594 " fill-opacity="1" fill-rule="nonzero"/><path fill="#32648d" d="M 42.429688 35.21875 C 43.160156 33.199219 44.605469 31.726562 43.390625 25.980469 C 43.191406 25.039062 42.796875 24.660156 42.257812 24.445312 C 41.992188 24.347656 41.6875 24.289062 41.367188 24.289062 C 41.347656 24.289062 41.324219 24.289062 41.304688 24.289062 L 41.308594 24.289062 C 40.917969 24.292969 40.542969 24.34375 40.179688 24.429688 C 39.414062 24.628906 38.734375 24.902344 38.105469 25.257812 C 37.871094 25.390625 37.667969 25.527344 37.476562 25.679688 L 37.441406 25.710938 C 37.453125 25.980469 37.503906 26.636719 37.527344 27.597656 C 37.550781 28.648438 37.523438 29.992188 37.324219 31.445312 C 36.890625 34.601562 39.136719 37.214844 41.769531 37.21875 C 41.925781 36.570312 42.175781 35.914062 42.429688 35.21875 Z M 40.871094 26.046875 C 40.785156 25.960938 40.71875 25.859375 40.660156 25.75 L 40.65625 25.742188 C 40.609375 25.667969 40.582031 25.570312 40.582031 25.46875 C 40.582031 25.453125 40.582031 25.433594 40.585938 25.414062 L 40.585938 25.417969 C 40.613281 25.21875 40.773438 25.113281 40.929688 25.058594 C 41.074219 25.007812 41.234375 24.980469 41.40625 24.980469 C 41.433594 24.980469 41.457031 24.980469 41.488281 24.984375 L 41.484375 24.976562 C 41.578125 24.976562 41.683594 24.984375 41.785156 25 C 42.0625 25.039062 42.308594 25.113281 42.496094 25.226562 C 42.585938 25.277344 42.667969 25.339844 42.730469 25.417969 L 42.734375 25.421875 C 42.796875 25.492188 42.832031 25.585938 42.832031 25.691406 C 42.832031 25.707031 42.832031 25.722656 42.832031 25.738281 L 42.832031 25.734375 C 42.8125 25.84375 42.761719 25.941406 42.695312 26.019531 C 42.621094 26.109375 42.535156 26.191406 42.441406 26.257812 L 42.4375 26.257812 C 42.253906 26.394531 42.019531 26.476562 41.769531 26.476562 C 41.722656 26.476562 41.671875 26.472656 41.625 26.46875 L 41.628906 26.46875 C 41.324219 26.414062 41.066406 26.265625 40.871094 26.046875 Z M 40.871094 26.046875 " fill-opacity="1" fill-rule="nonzero"/><path fill="#32648d" d="M 38.070312 25.277344 C 38.082031 25.269531 38.097656 25.265625 38.105469 25.257812 C 38.109375 25.257812 38.109375 25.257812 38.113281 25.253906 Z M 38.070312 25.277344 " fill-opacity="1" fill-rule="nonzero"/><path fill="#32648d" d="M 56.246094 18.265625 C 57.039062 19.289062 57.722656 20.457031 58.253906 21.707031 L 58.289062 21.808594 C 58.488281 22.296875 58.625 22.710938 58.699219 23.027344 C 58.738281 23.1875 58.761719 23.324219 58.773438 23.464844 C 58.777344 23.535156 58.777344 23.605469 58.75 23.730469 C 58.75 23.734375 58.742188 23.75 58.738281 23.753906 C 58.792969 25.371094 58.402344 26.46875 58.355469 28.011719 C 58.316406 29.128906 58.597656 30.441406 58.667969 31.878906 C 58.734375 33.226562 58.574219 34.707031 57.714844 36.15625 C 57.789062 36.246094 57.855469 36.335938 57.921875 36.421875 C 60.1875 32.777344 61.824219 28.746094 62.691406 25.304688 C 63.160156 23.453125 63.40625 21.777344 63.429688 20.449219 C 63.445312 19.117188 63.203125 18.15625 62.894531 17.753906 C 60.472656 14.585938 57.191406 13.777344 54.441406 13.757812 L 54.175781 13.757812 C 53.117188 13.773438 52.09375 13.898438 51.101562 14.113281 C 53.347656 15.132812 55.050781 16.703125 56.246094 18.265625 Z M 56.246094 18.265625 " fill-opacity="1" fill-rule="nonzero"/><g clip-path="url(#1c112b3de2)"><path fill="#000000" d="M 46.089844 11.816406 L 46.070312 11.816406 C 43.941406 11.78125 42.113281 12.308594 40.636719 13.1875 C 39.1875 12.671875 36.171875 11.785156 32.996094 11.960938 C 30.785156 12.085938 28.371094 12.769531 26.582031 14.699219 C 24.800781 16.628906 23.859375 19.613281 24.054688 23.675781 C 24.109375 24.796875 24.421875 26.621094 24.941406 28.988281 C 25.460938 31.355469 26.1875 34.125 27.097656 36.652344 C 28.007812 39.179688 29 41.453125 30.558594 42.996094 C 31.335938 43.769531 32.40625 44.417969 33.664062 44.363281 C 34.550781 44.328125 35.347656 43.929688 36.039062 43.34375 C 36.375 43.796875 36.734375 43.996094 37.0625 44.179688 C 37.472656 44.410156 37.875 44.566406 38.289062 44.667969 C 39.035156 44.859375 40.3125 45.113281 41.808594 44.855469 C 42.320312 44.765625 42.855469 44.597656 43.390625 44.355469 C 43.410156 44.964844 43.433594 45.5625 43.453125 46.164062 C 43.53125 48.078125 43.574219 49.84375 44.136719 51.390625 C 44.226562 51.644531 44.476562 52.949219 45.449219 54.097656 C 46.425781 55.25 48.335938 55.96875 50.515625 55.492188 C 52.050781 55.15625 54.003906 54.550781 55.300781 52.664062 C 56.582031 50.800781 57.160156 48.125 57.277344 43.785156 C 57.304688 43.550781 57.339844 43.351562 57.375 43.167969 L 57.679688 43.195312 L 57.714844 43.195312 C 59.355469 43.269531 61.132812 43.03125 62.617188 42.328125 C 63.933594 41.703125 64.929688 41.074219 65.652344 39.957031 C 65.835938 39.679688 66.03125 39.347656 66.085938 38.773438 C 66.140625 38.195312 65.820312 37.292969 65.28125 36.878906 C 64.207031 36.046875 63.53125 36.363281 62.804688 36.515625 C 62.160156 36.667969 61.414062 36.765625 60.648438 36.785156 L 60.636719 36.785156 C 62.722656 33.191406 64.222656 29.375 65.074219 25.996094 C 65.582031 24.003906 65.867188 22.164062 65.886719 20.558594 C 65.910156 18.949219 65.785156 17.527344 64.839844 16.292969 C 61.894531 12.449219 57.75 11.386719 54.546875 11.347656 C 54.445312 11.347656 54.347656 11.34375 54.246094 11.347656 L 54.246094 11.339844 C 52.503906 11.355469 50.824219 11.621094 49.234375 12.09375 L 49.160156 12.121094 C 48.242188 11.949219 47.175781 11.835938 46.089844 11.816406 Z M 50.421875 12.992188 C 51.539062 12.714844 52.828125 12.546875 54.152344 12.53125 L 54.164062 12.53125 L 54.164062 12.523438 C 57.195312 12.492188 61.070312 13.363281 63.851562 16.992188 C 64.476562 17.808594 64.664062 19 64.640625 20.46875 C 64.617188 21.9375 64.351562 23.695312 63.867188 25.621094 C 62.921875 29.347656 61.140625 33.695312 58.632812 37.597656 C 58.714844 37.65625 58.808594 37.710938 58.90625 37.75 L 58.917969 37.753906 C 59.4375 37.976562 60.632812 38.167969 63.015625 37.664062 C 63.617188 37.535156 64.054688 37.449219 64.511719 37.804688 C 64.714844 37.980469 64.84375 38.242188 64.84375 38.539062 C 64.84375 38.554688 64.84375 38.574219 64.84375 38.59375 L 64.84375 38.589844 C 64.8125 38.824219 64.730469 39.035156 64.605469 39.210938 C 64.144531 39.917969 63.234375 40.585938 62.074219 41.140625 C 61.042969 41.628906 59.5625 41.886719 58.25 41.902344 C 57.59375 41.910156 56.988281 41.859375 56.472656 41.695312 L 56.4375 41.679688 C 56.238281 43.636719 55.78125 47.5 55.484375 49.261719 C 55.246094 50.683594 54.828125 51.8125 54.03125 52.660156 C 53.234375 53.503906 52.109375 54.015625 50.597656 54.347656 C 48.722656 54.757812 47.355469 54.316406 46.472656 53.558594 C 45.59375 52.800781 45.191406 51.796875 44.945312 51.179688 C 44.78125 50.757812 44.695312 50.207031 44.609375 49.472656 C 44.527344 48.738281 44.464844 47.839844 44.425781 46.824219 C 44.382812 45.796875 44.363281 44.585938 44.363281 43.367188 C 44.363281 42.96875 44.367188 42.570312 44.367188 42.167969 C 43.613281 42.875 42.660156 43.375 41.597656 43.566406 L 41.566406 43.570312 C 40.320312 43.785156 39.210938 43.574219 38.546875 43.40625 C 38.191406 43.3125 37.886719 43.1875 37.597656 43.027344 C 37.292969 42.863281 37.003906 42.671875 36.808594 42.300781 C 36.734375 42.160156 36.6875 41.988281 36.6875 41.804688 C 36.6875 41.734375 36.695312 41.664062 36.710938 41.597656 C 36.777344 41.347656 36.914062 41.136719 37.101562 40.992188 L 37.101562 40.988281 C 37.460938 40.691406 37.933594 40.523438 38.648438 40.375 C 39.945312 40.101562 40.402344 39.914062 40.675781 39.691406 C 40.910156 39.5 41.175781 39.109375 41.644531 38.542969 C 41.644531 38.527344 41.640625 38.5 41.640625 38.472656 L 41.640625 38.46875 C 40.753906 38.441406 39.929688 38.199219 39.210938 37.792969 L 39.238281 37.804688 C 38.964844 38.097656 37.582031 39.59375 35.894531 41.667969 C 35.1875 42.535156 34.402344 43.035156 33.574219 43.070312 C 32.75 43.105469 32 42.679688 31.363281 42.050781 C 30.09375 40.789062 29.078125 38.621094 28.195312 36.167969 C 27.316406 33.71875 26.597656 30.988281 26.085938 28.660156 C 25.574219 26.335938 25.273438 24.460938 25.230469 23.554688 C 25.042969 19.714844 25.921875 17.125 27.429688 15.488281 C 28.941406 13.855469 31.011719 13.238281 33.027344 13.121094 C 36.652344 12.90625 40.089844 14.199219 40.785156 14.476562 C 42.128906 13.542969 43.855469 12.964844 46.011719 13 C 47.101562 13.019531 48.144531 13.164062 49.140625 13.425781 L 49.050781 13.40625 L 49.085938 13.386719 C 49.4375 13.253906 49.882812 13.121094 50.339844 13.007812 Z M 50.421875 12.992188 " fill-opacity="1" fill-rule="nonzero"/></g></svg>