<svg xmlns="http://www.w3.org/2000/svg" xmlns:xlink="http://www.w3.org/1999/xlink" width="120" zoomAndPan="magnify" viewBox="0 0 90 67.499998" height="90" preserveAspectRatio="xMidYMid meet" version="1.0"><defs><clipPath id="9f14aebff0"><path d="M 67 30 L 78 30 L 78 42.691406 L 67 42.691406 Z M 67 30 " clip-rule="nonzero"/></clipPath><clipPath id="50ab492f2d"><path d="M 11.347656 24.078125 L 64 24.078125 L 64 42.691406 L 11.347656 42.691406 Z M 11.347656 24.078125 " clip-rule="nonzero"/></clipPath><clipPath id="215c73910e"><path d="M 25 30 L 60 30 L 60 42.691406 L 25 42.691406 Z M 25 30 " clip-rule="nonzero"/></clipPath></defs><g clip-path="url(#9f14aebff0)"><path fill="#83cd29" d="M 72.667969 30.667969 C 72.507812 30.667969 72.351562 30.699219 72.210938 30.777344 L 67.816406 33.296875 C 67.535156 33.457031 67.359375 33.765625 67.359375 34.089844 L 67.359375 39.117188 C 67.359375 39.441406 67.535156 39.75 67.816406 39.914062 L 68.964844 40.570312 C 69.523438 40.839844 69.730469 40.835938 69.984375 40.835938 C 70.808594 40.835938 71.277344 40.339844 71.277344 39.476562 L 71.277344 34.519531 C 71.277344 34.449219 71.21875 34.398438 71.148438 34.398438 L 70.597656 34.398438 C 70.527344 34.398438 70.46875 34.449219 70.46875 34.519531 L 70.46875 39.480469 C 70.46875 39.863281 70.066406 40.246094 69.414062 39.921875 L 68.21875 39.230469 C 68.179688 39.207031 68.144531 39.164062 68.144531 39.117188 L 68.144531 34.09375 C 68.144531 34.042969 68.179688 33.996094 68.21875 33.972656 L 72.605469 31.464844 C 72.648438 31.441406 72.695312 31.441406 72.734375 31.464844 L 77.121094 33.972656 C 77.164062 33.996094 77.195312 34.042969 77.195312 34.09375 L 77.195312 39.117188 C 77.195312 39.164062 77.171875 39.214844 77.128906 39.238281 L 72.734375 41.746094 C 72.699219 41.769531 72.644531 41.769531 72.605469 41.746094 L 71.476562 41.082031 C 71.441406 41.0625 71.398438 41.0625 71.363281 41.082031 C 71.054688 41.253906 70.996094 41.277344 70.703125 41.375 C 70.628906 41.402344 70.519531 41.441406 70.738281 41.5625 L 72.214844 42.421875 C 72.355469 42.503906 72.511719 42.542969 72.671875 42.542969 C 72.832031 42.542969 72.988281 42.503906 73.128906 42.421875 L 77.523438 39.914062 C 77.808594 39.75 77.980469 39.445312 77.980469 39.121094 L 77.980469 34.09375 C 77.980469 33.765625 77.808594 33.460938 77.523438 33.296875 L 73.128906 30.78125 C 72.992188 30.703125 72.832031 30.667969 72.671875 30.667969 Z M 73.84375 34.257812 C 72.59375 34.257812 71.847656 34.785156 71.847656 35.664062 C 71.847656 36.617188 72.589844 36.878906 73.789062 36.996094 C 75.226562 37.136719 75.339844 37.347656 75.339844 37.625 C 75.339844 38.113281 74.945312 38.320312 74.023438 38.320312 C 72.859375 38.320312 72.605469 38.035156 72.519531 37.460938 C 72.511719 37.398438 72.460938 37.347656 72.398438 37.347656 L 71.828125 37.347656 C 71.742188 37.351562 71.699219 37.394531 71.699219 37.476562 C 71.699219 38.210938 72.101562 39.078125 74.019531 39.078125 C 75.410156 39.078125 76.214844 38.539062 76.214844 37.589844 C 76.214844 36.648438 75.566406 36.394531 74.21875 36.21875 C 72.855469 36.039062 72.722656 35.953125 72.722656 35.636719 C 72.722656 35.375 72.835938 35.023438 73.84375 35.023438 C 74.746094 35.023438 75.078125 35.21875 75.214844 35.820312 C 75.226562 35.878906 75.277344 35.921875 75.335938 35.921875 L 75.90625 35.921875 C 75.941406 35.921875 75.976562 35.902344 76 35.878906 C 76.023438 35.851562 76.042969 35.820312 76.039062 35.785156 C 75.949219 34.746094 75.25 34.257812 73.84375 34.257812 Z M 73.84375 34.257812 " fill-opacity="1" fill-rule="nonzero"/></g><g clip-path="url(#50ab492f2d)"><path fill="#404137" d="M 46.835938 24.078125 C 46.785156 24.078125 46.738281 24.089844 46.695312 24.117188 C 46.601562 24.171875 46.554688 24.25 46.554688 24.355469 L 46.554688 31.4375 C 46.554688 31.507812 46.523438 31.570312 46.460938 31.605469 C 46.394531 31.640625 46.332031 31.640625 46.265625 31.605469 L 45.097656 30.9375 C 44.914062 30.832031 44.726562 30.832031 44.539062 30.9375 L 39.882812 33.601562 C 39.710938 33.703125 39.605469 33.894531 39.605469 34.09375 L 39.605469 39.421875 C 39.605469 39.636719 39.695312 39.796875 39.882812 39.90625 L 44.539062 42.570312 C 44.726562 42.679688 44.914062 42.679688 45.097656 42.570312 L 49.753906 39.90625 C 49.941406 39.796875 50.035156 39.636719 50.035156 39.421875 L 50.035156 26.132812 C 50.035156 25.933594 49.925781 25.742188 49.746094 25.644531 L 46.976562 24.105469 C 46.929688 24.082031 46.882812 24.078125 46.835938 24.078125 Z M 16.886719 30.734375 C 16.796875 30.738281 16.714844 30.753906 16.632812 30.796875 L 11.976562 33.464844 C 11.789062 33.570312 11.699219 33.730469 11.699219 33.945312 L 11.707031 41.097656 C 11.707031 41.199219 11.757812 41.289062 11.847656 41.339844 C 11.933594 41.390625 12.042969 41.390625 12.128906 41.339844 L 14.890625 39.765625 C 15.0625 39.664062 15.179688 39.484375 15.179688 39.285156 L 15.179688 35.945312 C 15.179688 35.746094 15.285156 35.5625 15.457031 35.460938 L 16.632812 34.785156 C 16.71875 34.738281 16.8125 34.710938 16.914062 34.714844 C 17.015625 34.710938 17.105469 34.738281 17.195312 34.785156 L 18.367188 35.460938 C 18.542969 35.5625 18.648438 35.746094 18.648438 35.941406 L 18.648438 39.285156 C 18.648438 39.484375 18.765625 39.664062 18.9375 39.765625 L 21.699219 41.339844 C 21.785156 41.390625 21.894531 41.390625 21.980469 41.339844 C 22.066406 41.289062 22.121094 41.199219 22.121094 41.097656 L 22.128906 33.945312 C 22.128906 33.730469 22.035156 33.570312 21.847656 33.464844 L 17.195312 30.796875 C 17.113281 30.753906 17.03125 30.738281 16.941406 30.734375 Z M 58.71875 30.796875 C 58.621094 30.796875 58.527344 30.824219 58.441406 30.871094 L 53.785156 33.539062 C 53.609375 33.636719 53.503906 33.820312 53.503906 34.019531 L 53.503906 39.351562 C 53.503906 39.550781 53.617188 39.730469 53.792969 39.832031 L 58.414062 42.441406 C 58.582031 42.539062 58.789062 42.546875 58.960938 42.449219 L 61.761719 40.90625 C 61.851562 40.855469 61.910156 40.765625 61.910156 40.664062 C 61.910156 40.5625 61.859375 40.472656 61.769531 40.425781 L 57.085938 37.757812 C 57 37.710938 56.9375 37.609375 56.9375 37.507812 L 56.9375 35.84375 C 56.9375 35.742188 57 35.652344 57.085938 35.601562 L 58.542969 34.769531 C 58.628906 34.71875 58.734375 34.71875 58.824219 34.769531 L 60.28125 35.601562 C 60.375 35.65625 60.421875 35.734375 60.421875 35.84375 L 60.421875 37.15625 C 60.421875 37.261719 60.46875 37.34375 60.5625 37.398438 C 60.648438 37.445312 60.753906 37.445312 60.839844 37.398438 L 63.628906 35.785156 C 63.804688 35.6875 63.910156 35.503906 63.910156 35.304688 L 63.910156 34.019531 C 63.910156 33.804688 63.816406 33.644531 63.628906 33.539062 L 59.003906 30.871094 C 58.917969 30.824219 58.824219 30.796875 58.722656 30.796875 Z M 44.800781 34.777344 C 44.828125 34.777344 44.851562 34.785156 44.875 34.796875 L 46.46875 35.710938 C 46.511719 35.738281 46.542969 35.785156 46.542969 35.832031 L 46.542969 37.664062 C 46.542969 37.714844 46.515625 37.761719 46.46875 37.785156 L 44.875 38.703125 C 44.832031 38.726562 44.777344 38.726562 44.734375 38.703125 L 43.140625 37.785156 C 43.097656 37.761719 43.066406 37.714844 43.066406 37.664062 L 43.066406 35.832031 C 43.066406 35.785156 43.097656 35.738281 43.140625 35.714844 L 44.734375 34.796875 C 44.757812 34.785156 44.777344 34.777344 44.800781 34.777344 Z M 44.800781 34.777344 " fill-opacity="1" fill-rule="nonzero"/></g><g clip-path="url(#215c73910e)"><path fill="#83cd29" d="M 30.871094 30.769531 C 30.769531 30.769531 30.675781 30.796875 30.589844 30.84375 L 25.933594 33.5 C 25.761719 33.601562 25.65625 33.792969 25.65625 33.992188 L 25.65625 39.320312 C 25.65625 39.535156 25.746094 39.695312 25.933594 39.804688 L 30.589844 42.46875 C 30.777344 42.574219 30.964844 42.574219 31.148438 42.46875 L 35.804688 39.804688 C 35.992188 39.695312 36.085938 39.535156 36.085938 39.320312 L 36.085938 33.992188 C 36.085938 33.792969 35.980469 33.601562 35.804688 33.5 L 31.148438 30.84375 C 31.0625 30.796875 30.96875 30.769531 30.871094 30.769531 Z M 58.710938 35.527344 C 58.691406 35.527344 58.671875 35.527344 58.65625 35.535156 L 57.757812 36.054688 C 57.722656 36.074219 57.703125 36.105469 57.703125 36.148438 L 57.703125 37.164062 C 57.703125 37.203125 57.726562 37.238281 57.757812 37.257812 L 58.65625 37.765625 C 58.691406 37.789062 58.722656 37.789062 58.757812 37.765625 L 59.652344 37.257812 C 59.6875 37.238281 59.710938 37.203125 59.710938 37.164062 L 59.710938 36.148438 C 59.710938 36.109375 59.6875 36.074219 59.652344 36.054688 L 58.757812 35.535156 C 58.742188 35.527344 58.730469 35.527344 58.710938 35.527344 Z M 58.710938 35.527344 " fill-opacity="1" fill-rule="nonzero"/></g></svg>