<svg xmlns="http://www.w3.org/2000/svg" xmlns:xlink="http://www.w3.org/1999/xlink" width="120" zoomAndPan="magnify" viewBox="0 0 90 67.499998" height="90" preserveAspectRatio="xMidYMid meet" version="1.0"><defs><clipPath id="a025dd8e3d"><path d="M 26 18 L 63.910156 18 L 63.910156 60.085938 L 26 60.085938 Z M 26 18 " clip-rule="nonzero"/></clipPath><clipPath id="53eb98e1d8"><path d="M 26 7.230469 L 41 7.230469 L 41 50 L 26 50 Z M 26 7.230469 " clip-rule="nonzero"/></clipPath></defs><path fill="#ffa000" d="M 50.953125 26.53125 L 45.691406 31.421875 L 40.8125 21.582031 L 43.335938 15.921875 C 43.996094 14.773438 45.019531 14.785156 45.660156 15.921875 Z M 50.953125 26.53125 " fill-opacity="1" fill-rule="nonzero"/><path fill="#f57f17" d="M 40.8125 21.582031 L 45.691406 31.421875 L 26.039062 49.699219 Z M 40.8125 21.582031 " fill-opacity="1" fill-rule="nonzero"/><g clip-path="url(#a025dd8e3d)"><path fill="#ffca28" d="M 56.703125 19.054688 C 57.644531 18.148438 58.617188 18.457031 58.863281 19.738281 L 63.980469 49.457031 L 47.019531 59.636719 C 46.429688 59.964844 44.851562 60.105469 44.851562 60.105469 C 44.851562 60.105469 43.417969 59.933594 42.871094 59.613281 L 26.039062 49.699219 Z M 56.703125 19.054688 " fill-opacity="1" fill-rule="nonzero"/></g><g clip-path="url(#53eb98e1d8)"><path fill="#ffa000" d="M 40.8125 21.582031 L 26.039062 49.699219 L 32.617188 8.605469 C 32.863281 7.324219 33.589844 7.199219 34.242188 8.332031 Z M 40.8125 21.582031 " fill-opacity="1" fill-rule="nonzero"/></g></svg>