<svg xmlns="http://www.w3.org/2000/svg" xmlns:xlink="http://www.w3.org/1999/xlink" width="120" zoomAndPan="magnify" viewBox="0 0 90 67.499998" height="90" preserveAspectRatio="xMidYMid meet" version="1.0"><defs><clipPath id="b3e0ed0ec6"><path d="M 32 28 L 76.269531 28 L 76.269531 38 L 32 38 Z M 32 28 " clip-rule="nonzero"/></clipPath><clipPath id="6a7ac5bf95"><path d="M 13.730469 25.050781 L 30 25.050781 L 30 42.171875 L 13.730469 42.171875 Z M 13.730469 25.050781 " clip-rule="nonzero"/></clipPath><clipPath id="a2a14519ff"><path d="M 21 25.050781 L 30 25.050781 L 30 42.171875 L 21 42.171875 Z M 21 25.050781 " clip-rule="nonzero"/></clipPath></defs><g clip-path="url(#b3e0ed0ec6)"><path fill="#b52e31" d="M 32.148438 37.75 L 32.148438 29.964844 L 33.132812 29.964844 L 37.828125 36.230469 L 37.828125 29.964844 L 38.769531 29.964844 L 38.769531 37.75 L 37.78125 37.75 L 33.085938 31.425781 L 33.085938 37.75 Z M 46.414062 37.441406 C 45.792969 37.675781 45.121094 37.800781 44.414062 37.800781 C 41.632812 37.800781 40.242188 36.453125 40.242188 33.746094 C 40.242188 31.191406 41.585938 29.90625 44.269531 29.90625 C 45.035156 29.90625 45.757812 30.015625 46.414062 30.226562 L 46.414062 31.089844 C 45.757812 30.832031 45.074219 30.707031 44.378906 30.707031 C 42.28125 30.707031 41.230469 31.722656 41.230469 33.722656 C 41.230469 35.882812 42.269531 36.960938 44.328125 36.960938 C 44.660156 36.960938 45.023438 36.910156 45.425781 36.824219 L 45.425781 34.214844 L 46.414062 34.214844 Z M 48 34.746094 L 48 29.964844 L 48.988281 29.964844 L 48.988281 34.746094 C 48.988281 36.242188 49.71875 36.996094 51.195312 36.996094 C 52.660156 36.996094 53.402344 36.242188 53.402344 34.746094 L 53.402344 29.964844 L 54.390625 29.964844 L 54.390625 34.746094 C 54.390625 36.785156 53.328125 37.8125 51.195312 37.8125 C 49.0625 37.8125 48 36.785156 48 34.746094 Z M 57.144531 29.964844 L 57.144531 36.933594 L 61.171875 36.933594 L 61.171875 37.75 L 56.160156 37.75 L 56.160156 29.964844 Z M 62.597656 37.75 L 61.5625 37.75 L 65.378906 28.941406 L 69.195312 37.75 L 68.097656 37.75 L 67.109375 35.304688 L 64.574219 35.304688 L 64.839844 34.488281 L 66.78125 34.488281 L 65.339844 30.96875 Z M 70.253906 37.75 L 70.253906 29.964844 L 73.535156 29.964844 C 75 29.964844 75.730469 30.585938 75.730469 31.832031 C 75.730469 32.84375 75.011719 33.597656 73.585938 34.082031 L 76.21875 37.75 L 74.914062 37.75 L 72.476562 34.253906 L 72.476562 33.597656 C 73.9375 33.363281 74.683594 32.796875 74.683594 31.882812 C 74.683594 31.164062 74.28125 30.808594 73.464844 30.808594 L 71.269531 30.808594 L 71.269531 37.75 Z M 70.253906 37.75 " fill-opacity="1" fill-rule="evenodd"/></g><g clip-path="url(#6a7ac5bf95)"><path fill="#e23237" d="M 13.78125 27.890625 L 21.648438 25.050781 L 29.71875 27.839844 L 28.414062 38.378906 L 21.648438 42.171875 L 14.988281 38.429688 Z M 13.78125 27.890625 " fill-opacity="1" fill-rule="evenodd"/></g><g clip-path="url(#a2a14519ff)"><path fill="#b52e31" d="M 29.71875 27.839844 L 21.648438 25.050781 L 21.648438 42.171875 L 28.414062 38.378906 Z M 29.71875 27.839844 " fill-opacity="1" fill-rule="evenodd"/></g><path fill="#ffffff" d="M 21.660156 27.050781 L 16.757812 38.097656 L 18.585938 38.058594 L 19.574219 35.5625 L 23.953125 35.5625 L 25.023438 38.082031 L 26.769531 38.121094 Z M 21.671875 30.597656 L 23.328125 34.105469 L 20.21875 34.105469 Z M 21.671875 30.597656 " fill-opacity="1" fill-rule="evenodd"/></svg>