<svg xmlns="http://www.w3.org/2000/svg" xmlns:xlink="http://www.w3.org/1999/xlink" width="120" zoomAndPan="magnify" viewBox="0 0 90 67.499998" height="90" preserveAspectRatio="xMidYMid meet" version="1.0"><defs><clipPath id="c15d757b80"><path d="M 34 15.839844 L 55 15.839844 L 55 44 L 34 44 Z M 34 15.839844 " clip-rule="nonzero"/></clipPath><clipPath id="0b0e8820c3"><path d="M 27 32 L 56 32 L 56 50.832031 L 27 50.832031 Z M 27 32 " clip-rule="nonzero"/></clipPath><clipPath id="3cc1dece8e"><path d="M 40 26 L 64.515625 26 L 64.515625 50.832031 L 40 50.832031 Z M 40 26 " clip-rule="nonzero"/></clipPath></defs><g clip-path="url(#c15d757b80)"><path fill="#6c4eb0" d="M 39.707031 20.824219 C 41.089844 19.109375 43.691406 18.261719 45.460938 18.21875 C 50.433594 18.125 52.507812 24.277344 52.667969 26.722656 L 54.96875 27.40625 C 54.4375 19.910156 49.746094 15.980469 45.253906 15.980469 C 41.042969 15.976562 37.15625 19.019531 35.585938 23.476562 C 33.449219 29.417969 34.851562 35.128906 37.476562 39.699219 C 37.246094 40 37.109375 40.523438 37.15625 41.023438 C 37.199219 42.398438 38.371094 43.539062 39.777344 43.539062 L 39.871094 43.539062 C 41.34375 43.492188 42.472656 42.285156 42.402344 40.84375 C 42.402344 39.46875 41.207031 38.332031 39.800781 38.332031 L 39.707031 38.332031 C 39.617188 38.332031 39.480469 38.332031 39.363281 38.375 C 37.453125 35.175781 36.644531 31.746094 36.949219 28.046875 C 37.128906 25.257812 38.050781 22.835938 39.707031 20.824219 Z M 39.707031 20.824219 " fill-opacity="1" fill-rule="nonzero"/></g><g clip-path="url(#0b0e8820c3)"><path fill="#6c4eb0" d="M 28.617188 46.765625 C 30.160156 49.050781 33.3125 50.511719 36.765625 50.511719 C 37.683594 50.511719 38.652344 50.445312 39.597656 50.214844 C 45.582031 49.070312 50.117188 45.507812 52.71875 40.253906 L 52.738281 40.207031 C 54.074219 40.089844 55.109375 38.921875 55.042969 37.527344 C 54.96875 36.132812 53.820312 35.015625 52.417969 35.015625 L 52.324219 35.015625 C 50.875 35.0625 49.746094 36.273438 49.792969 37.714844 C 49.839844 38.445312 50.140625 39.039062 50.550781 39.472656 C 48.941406 42.582031 46.523438 44.867188 42.863281 46.785156 C 40.402344 48.066406 37.800781 48.546875 35.269531 48.203125 C 33.152344 47.910156 31.496094 46.96875 30.480469 45.460938 C 28.964844 43.175781 28.824219 40.710938 30.089844 38.242188 C 31.011719 36.460938 32.390625 35.15625 33.3125 34.515625 C 33.082031 33.921875 32.808594 32.917969 32.667969 32.164062 C 25.851562 37.007812 26.546875 43.632812 28.617188 46.765625 Z M 28.617188 46.765625 " fill-opacity="1" fill-rule="nonzero"/></g><g clip-path="url(#3cc1dece8e)"><path fill="#6c4eb0" d="M 63.230469 45.757812 C 64.613281 43.015625 64.5 38.398438 60.976562 34.445312 L 60.953125 34.488281 C 57.386719 30.328125 52.140625 28.046875 46.152344 28.046875 L 45.367188 28.046875 C 44.980469 27.199219 44.082031 26.671875 43.070312 26.671875 L 43 26.671875 C 41.550781 26.671875 40.421875 27.910156 40.46875 29.347656 C 40.515625 30.71875 41.691406 31.863281 43.09375 31.863281 L 43.207031 31.863281 C 44.246094 31.816406 45.140625 31.175781 45.507812 30.261719 L 46.363281 30.261719 C 49.910156 30.261719 53.265625 31.289062 56.328125 33.300781 C 58.675781 34.832031 60.359375 36.84375 61.300781 39.242188 C 62.128906 41.207031 62.082031 43.128906 61.230469 44.726562 C 59.921875 47.242188 57.710938 48.566406 54.789062 48.566406 C 52.945312 48.566406 51.152344 47.996094 50.230469 47.585938 C 49.679688 48.039062 48.757812 48.792969 48.089844 49.253906 C 50.113281 50.164062 52.164062 50.691406 54.140625 50.691406 C 58.628906 50.691406 61.964844 48.179688 63.230469 45.757812 Z M 63.230469 45.757812 " fill-opacity="1" fill-rule="nonzero"/></g></svg>