<svg xmlns="http://www.w3.org/2000/svg" xmlns:xlink="http://www.w3.org/1999/xlink" width="120" zoomAndPan="magnify" viewBox="0 0 90 67.499998" height="90" preserveAspectRatio="xMidYMid meet" version="1.0"><defs><clipPath id="d8df5e399d"><path d="M 21.546875 9 L 68.453125 9 L 68.453125 55.835938 L 21.546875 55.835938 Z M 21.546875 9 " clip-rule="nonzero"/></clipPath></defs><g clip-path="url(#d8df5e399d)"><path fill="#ffd51e" d="M 22.078125 9.757812 C 22.484375 9.300781 23.0625 9.039062 23.671875 9.039062 L 66.117188 9.039062 C 66.726562 9.039062 67.304688 9.300781 67.707031 9.757812 C 68.109375 10.214844 68.296875 10.820312 68.222656 11.425781 L 63.976562 45.382812 C 63.890625 46.085938 63.457031 46.699219 62.820312 47.015625 L 45.84375 55.507812 C 45.246094 55.804688 44.542969 55.804688 43.945312 55.507812 L 26.964844 47.015625 C 26.332031 46.699219 25.898438 46.085938 25.808594 45.382812 L 21.566406 11.425781 C 21.488281 10.820312 21.675781 10.214844 22.078125 9.757812 Z M 26.074219 13.285156 L 29.878906 43.730469 L 44.894531 51.234375 L 59.90625 43.730469 L 63.710938 13.285156 Z M 26.074219 13.285156 " fill-opacity="1" fill-rule="evenodd"/></g><path fill="#ffffff" d="M 39.589844 41.460938 L 39.589844 17.527344 L 43.832031 17.527344 L 43.832031 45.117188 C 43.832031 45.875 43.429688 46.574219 42.777344 46.953125 C 42.121094 47.335938 41.3125 47.335938 40.65625 46.960938 L 33.230469 42.71875 L 35.335938 39.03125 Z M 39.589844 41.460938 " fill-opacity="1" fill-rule="evenodd"/><path fill="#ffffff" d="M 45.953125 17.527344 C 45.953125 16.355469 46.90625 15.40625 48.078125 15.40625 L 58.6875 15.40625 L 58.6875 19.652344 L 50.199219 19.652344 L 50.199219 28.679688 L 57.167969 27.128906 C 57.828125 26.984375 58.519531 27.160156 59.027344 27.609375 C 59.539062 28.054688 59.800781 28.71875 59.742188 29.394531 L 58.679688 41.066406 C 58.613281 41.796875 58.171875 42.445312 57.515625 42.773438 L 49.027344 47.015625 L 47.128906 43.21875 L 54.558594 39.503906 L 55.25 31.902344 L 48.539062 33.394531 C 47.910156 33.535156 47.25 33.382812 46.75 32.980469 C 46.246094 32.578125 45.953125 31.96875 45.953125 31.324219 Z M 45.953125 17.527344 " fill-opacity="1" fill-rule="evenodd"/></svg>